<svg xmlns="http://www.w3.org/2000/svg" viewBox="0 0 223.38 72.51"><defs><style>.cls-1{fill:#61b22f;}.cls-2{fill:#69b42d;}.cls-3{fill:#78888b;}</style></defs><title>greenApple</title><g id="Capa_2" data-name="Capa 2"><g id="Capa_2-2" data-name="Capa 2"><path class="cls-1" d="M35,13.75S31.82,40.11,58.18,30.48c0,0,5.5,13.1,0,30.26,0,0-7.64-.4-16.6,11.68,0,0-35.26,3-41.56-25.93,0,0-1.42-16.61,19.45-18.56C19.47,27.93,23.7,16.36,35,13.75Z"/><path class="cls-1" d="M19.36,26.89c-2.54-6-2.93-19.55-2.93-19.55L12.05,5.15S11.59,19.67,16.71,26,19.36,26.89,19.36,26.89Z"/><path class="cls-1" d="M15.85,13.85S17.14,6.57,34.28,0c0,0-.47,8-8.69,16s-9.74,5.28-9.74,5.28S14.33,18.31,15.85,13.85Z"/><path class="cls-2" d="M40.72,16.52c0-6,3.59-9.6,8.49-9.6A7.16,7.16,0,0,1,54.54,9.2l-1.29,1.53a5.23,5.23,0,0,0-4-1.74c-3.72,0-6.12,2.86-6.12,7.47S45.35,24,49.3,24a5.06,5.06,0,0,0,3.33-1.08V18.12H48.71V16.17h6.06v7.77a7.86,7.86,0,0,1-5.7,2.15C44.19,26.09,40.72,22.53,40.72,16.52Z"/><path class="cls-2" d="M59,12.05h1.92l.19,2.5h.08c1-1.74,2.35-2.83,3.89-2.83a3.14,3.14,0,0,1,1.47.28l-.44,2a3.77,3.77,0,0,0-1.32-.22c-1.16,0-2.54.83-3.47,3.15v8.79H59Z"/><path class="cls-2" d="M67.46,18.92c0-4.46,3-7.2,6.16-7.2,3.49,0,5.47,2.51,5.47,6.42A8.05,8.05,0,0,1,79,19.46H69.75c.17,2.9,1.94,4.78,4.56,4.78a6,6,0,0,0,3.4-1.09l.83,1.52A8,8,0,0,1,74,26.09C70.37,26.09,67.46,23.42,67.46,18.92ZM77,17.8c0-2.74-1.24-4.24-3.38-4.24-1.92,0-3.65,1.55-3.93,4.24Z"/><path class="cls-2" d="M81.44,18.92c0-4.46,3-7.2,6.15-7.2,3.5,0,5.47,2.51,5.47,6.42A7.08,7.08,0,0,1,93,19.46H83.73c.16,2.9,1.94,4.78,4.55,4.78a6,6,0,0,0,3.41-1.09l.83,1.52A8,8,0,0,1,88,26.09C84.34,26.09,81.44,23.42,81.44,18.92ZM91,17.8c0-2.74-1.23-4.24-3.37-4.24-1.93,0-3.65,1.55-3.93,4.24Z"/><path class="cls-2" d="M96.43,12.05h1.91l.2,2h.08a6.53,6.53,0,0,1,4.59-2.31c2.89,0,4.18,1.86,4.18,5.35v8.68h-2.31V17.37c0-2.55-.78-3.64-2.59-3.64-1.4,0-2.37.71-3.74,2.1v9.92H96.43Z"/><path class="cls-2" d="M121.5,7.26h2.65l6.26,18.49h-2.49l-3.23-10.33c-.66-2.06-1.26-4.09-1.85-6.23h-.11c-.57,2.15-1.17,4.17-1.83,6.23l-3.26,10.33h-2.4Zm-3,11h8.52v1.88h-8.52Z"/><path class="cls-2" d="M132.8,12.05h1.92l.19,1.59H135a7.21,7.21,0,0,1,4.37-1.92c3.54,0,5.43,2.74,5.43,7,0,4.67-2.8,7.39-5.93,7.39a6.22,6.22,0,0,1-3.8-1.59l.06,2.39v4.64H132.8Zm9.59,6.67c0-3-1-5-3.61-5a5.64,5.64,0,0,0-3.66,1.87v7.18a5.35,5.35,0,0,0,3.34,1.42C140.72,24.14,142.39,22.1,142.39,18.72Z"/><path class="cls-2" d="M148.44,12.05h1.92l.19,1.59h.08A7.21,7.21,0,0,1,155,11.72c3.54,0,5.43,2.74,5.43,7,0,4.67-2.8,7.39-5.93,7.39a6.22,6.22,0,0,1-3.8-1.59l.06,2.39v4.64h-2.32ZM158,18.72c0-3-1-5-3.61-5a5.64,5.64,0,0,0-3.66,1.87v7.18a5.35,5.35,0,0,0,3.34,1.42C156.36,24.14,158,22.1,158,18.72Z"/><path class="cls-2" d="M164,23V5.68h2.32V23.17c0,.71.31,1,.65,1a2.2,2.2,0,0,0,.5-.05l.32,1.76a3.71,3.71,0,0,1-1.34.22C164.69,26.09,164,25,164,23Z"/><path class="cls-2" d="M170.14,18.92c0-4.46,3-7.2,6.16-7.2,3.5,0,5.47,2.51,5.47,6.42a7.08,7.08,0,0,1-.11,1.32h-9.22c.16,2.9,1.94,4.78,4.55,4.78a6,6,0,0,0,3.41-1.09l.82,1.52a8,8,0,0,1-4.52,1.42C173.05,26.09,170.14,23.42,170.14,18.92Zm9.58-1.12c0-2.74-1.24-4.24-3.38-4.24-1.92,0-3.64,1.55-3.93,4.24Z"/><path class="cls-3" d="M67.46,48.15c0-5.9,3.47-9.49,8.11-9.49a6.83,6.83,0,0,1,5,2.25l-1.28,1.52a5,5,0,0,0-3.71-1.72c-3.45,0-5.75,2.82-5.75,7.38s2.2,7.47,5.66,7.47a5.47,5.47,0,0,0,4.23-2.05L81,55a7,7,0,0,1-5.61,2.64C70.87,57.6,67.46,54.08,67.46,48.15Z"/><path class="cls-3" d="M84.21,54.55V37.43H86.5V54.72c0,.7.3,1,.64,1a2.2,2.2,0,0,0,.5,0L88,57.39a3.89,3.89,0,0,1-1.32.21C84.91,57.6,84.21,56.5,84.21,54.55Z"/><path class="cls-3" d="M90.89,40.17l3.94-4.64,1.61,1.52-4.38,4.26Zm.42,3.56H93.6V57.27H91.31Z"/><path class="cls-3" d="M98.17,43.73h1.89l.2,2h.07a6.46,6.46,0,0,1,4.54-2.29c2.85,0,4.13,1.84,4.13,5.29v8.58h-2.29V49c0-2.52-.76-3.6-2.55-3.6-1.38,0-2.34.71-3.7,2.08v9.8H98.17Z"/><path class="cls-3" d="M113,39.47a1.58,1.58,0,0,1,3.16,0,1.58,1.58,0,0,1-3.16,0Zm.42,4.26h2.28V57.27H113.4Z"/><path class="cls-3" d="M119.25,50.52c0-4.52,3-7.12,6.51-7.12a5.66,5.66,0,0,1,4,1.59l-1.17,1.51a3.92,3.92,0,0,0-2.69-1.19c-2.45,0-4.24,2.11-4.24,5.21s1.69,5.17,4.18,5.17A4.92,4.92,0,0,0,129,54.35l1,1.53a6.58,6.58,0,0,1-4.37,1.72C122,57.6,119.25,55,119.25,50.52Z"/><path class="cls-3" d="M131.83,53.75c0-2.94,2.54-4.42,8.31-5,0-1.74-.59-3.41-2.8-3.41a7.45,7.45,0,0,0-4,1.45l-.9-1.57a9.94,9.94,0,0,1,5.32-1.77c3.3,0,4.7,2.19,4.7,5.56v8.31h-1.89l-.2-1.62h-.07a7.21,7.21,0,0,1-4.48,2A3.68,3.68,0,0,1,131.83,53.75Zm8.31.21V50.21c-4.54.54-6.07,1.65-6.07,3.38,0,1.54,1,2.16,2.37,2.16A5.55,5.55,0,0,0,140.14,54Z"/><path class="cls-3" d="M151.32,50.52c0-4.39,2.77-7.12,5.85-7.12A5.54,5.54,0,0,1,161,45l-.1-2.32V37.43h2.29V57.27h-1.89l-.2-1.6H161a6,6,0,0,1-4.11,1.93C153.51,57.6,151.32,55,151.32,50.52Zm9.55,3.31v-7.1a4.81,4.81,0,0,0-3.3-1.4c-2.16,0-3.89,2.08-3.89,5.17s1.35,5.17,3.72,5.17A4.7,4.7,0,0,0,160.87,53.83Z"/><path class="cls-3" d="M166.73,50.52c0-4.41,3-7.12,6.08-7.12,3.45,0,5.4,2.48,5.4,6.35a6.85,6.85,0,0,1-.11,1.3H169c.17,2.87,1.92,4.73,4.5,4.73a5.89,5.89,0,0,0,3.37-1.09l.82,1.51a8,8,0,0,1-4.47,1.4C169.6,57.6,166.73,55,166.73,50.52Zm9.46-1.11c0-2.71-1.22-4.18-3.34-4.18-1.9,0-3.6,1.52-3.88,4.18Z"/><path class="cls-3" d="M181.54,43.73h1.89l.19,2h.08a6.46,6.46,0,0,1,4.54-2.29c2.85,0,4.13,1.84,4.13,5.29v8.58h-2.29V49c0-2.52-.76-3.6-2.55-3.6-1.39,0-2.34.71-3.7,2.08v9.8h-2.29Z"/><path class="cls-3" d="M197.16,53.08V45.6h-2V43.87l2.12-.14.27-3.79h1.91v3.79h3.67V45.6h-3.67v7.52c0,1.66.54,2.61,2.1,2.61a4.56,4.56,0,0,0,1.54-.36l.44,1.73a8.12,8.12,0,0,1-2.51.5C198.14,57.6,197.16,55.77,197.16,53.08Z"/><path class="cls-3" d="M204.76,53.75c0-2.94,2.54-4.42,8.31-5,0-1.74-.59-3.41-2.8-3.41a7.45,7.45,0,0,0-4,1.45l-.9-1.57a9.94,9.94,0,0,1,5.32-1.77c3.3,0,4.7,2.19,4.7,5.56v8.31h-1.9l-.19-1.62h-.08a7.16,7.16,0,0,1-4.47,2A3.68,3.68,0,0,1,204.76,53.75Zm8.31.21V50.21c-4.54.54-6.07,1.65-6.07,3.38,0,1.54,1,2.16,2.37,2.16A5.55,5.55,0,0,0,213.07,54Z"/><path class="cls-3" d="M219.64,54.55V37.43h2.29V54.72c0,.7.31,1,.64,1a2.2,2.2,0,0,0,.5,0l.31,1.75a3.83,3.83,0,0,1-1.31.21C220.35,57.6,219.64,56.5,219.64,54.55Z"/></g></g></svg>